<?xml version="1.0" encoding="UTF-8"?>
<svg id="Layer_2" data-name="Layer 2" xmlns="http://www.w3.org/2000/svg" viewBox="0 0 2691.09 1532.3">
  <defs>
    <style>
      .cls-1 {
        fill: #fff;
      }
    </style>
  </defs>
  <g id="Layer_1-2" data-name="Layer 1">
    <polygon class="cls-1" points="9.28 318.32 41.03 329.08 67.9 309.03 67.47 342.56 94.85 361.91 62.83 371.87 52.88 403.88 33.52 376.51 0 376.94 20.05 350.07 9.28 318.32"/>
    <polygon class="cls-1" points="1478.77 644.74 1510.52 655.51 1537.39 635.46 1536.96 668.98 1564.33 688.34 1532.32 698.29 1522.37 730.3 1503.01 702.93 1469.49 703.36 1489.54 676.49 1478.77 644.74"/>
    <polygon class="cls-1" points="1937.77 58.74 1969.52 69.51 1996.39 49.46 1995.96 82.98 2023.33 102.34 1991.32 112.29 1981.37 144.3 1962.01 116.93 1928.49 117.36 1948.54 90.49 1937.77 58.74"/>
    <polygon class="cls-1" points="1757.77 1446.74 1789.52 1457.51 1816.39 1437.46 1815.96 1470.98 1843.33 1490.34 1811.32 1500.29 1801.37 1532.3 1782.01 1504.93 1748.49 1505.36 1768.54 1478.49 1757.77 1446.74"/>
    <polygon class="cls-1" points="2539.97 351.55 2552.81 355.9 2563.68 347.79 2563.51 361.35 2574.58 369.18 2561.63 373.21 2557.6 386.16 2549.77 375.09 2536.21 375.26 2544.32 364.39 2539.97 351.55"/>
    <polygon class="cls-1" points="2656.48 286.01 2669.32 290.37 2680.19 282.25 2680.02 295.82 2691.09 303.65 2678.14 307.67 2674.11 320.62 2666.28 309.55 2652.72 309.72 2660.83 298.85 2656.48 286.01"/>
    <polygon class="cls-1" points="2649.19 398.88 2662.04 403.23 2672.91 395.12 2672.73 408.68 2683.81 416.51 2670.86 420.54 2666.83 433.49 2659 422.42 2645.44 422.59 2653.55 411.72 2649.19 398.88"/>
    <polygon class="cls-1" points="1491.97 813.55 1504.81 817.9 1515.68 809.79 1515.51 823.35 1526.58 831.18 1513.63 835.21 1509.6 848.16 1501.77 837.09 1488.21 837.26 1496.32 826.39 1491.97 813.55"/>
    <polygon class="cls-1" points="1608.48 748.01 1621.32 752.37 1632.19 744.25 1632.02 757.82 1643.09 765.65 1630.14 769.67 1626.11 782.62 1618.28 771.55 1604.72 771.72 1612.83 760.85 1608.48 748.01"/>
    <polygon class="cls-1" points="1737.68 916.39 1750.52 920.75 1761.39 912.63 1761.22 926.2 1772.29 934.03 1759.34 938.05 1755.31 951 1747.48 939.93 1733.92 940.1 1742.03 929.23 1737.68 916.39"/>
    <polygon class="cls-1" points="77.68 691.83 88.94 695.65 98.47 688.54 98.32 700.43 108.03 707.29 96.67 710.82 93.14 722.18 86.28 712.47 74.39 712.62 81.5 703.09 77.68 691.83"/>
    <polygon class="cls-1" points="310.6 363.29 321.86 367.11 331.39 360 331.24 371.89 340.95 378.75 329.59 382.28 326.06 393.64 319.2 383.93 307.31 384.08 314.42 374.55 310.6 363.29"/>
    <polygon class="cls-1" points="278.67 631.34 289.93 635.16 299.46 628.05 299.31 639.94 309.02 646.8 297.66 650.33 294.13 661.69 287.27 651.98 275.38 652.13 282.49 642.6 278.67 631.34"/>
    <polygon class="cls-1" points="1675.68 331.83 1686.94 335.65 1696.47 328.54 1696.32 340.43 1706.03 347.29 1694.67 350.82 1691.14 362.18 1684.28 352.47 1672.39 352.62 1679.5 343.09 1675.68 331.83"/>
    <polygon class="cls-1" points="1908.6 3.29 1919.86 7.11 1929.39 0 1929.24 11.89 1938.95 18.75 1927.59 22.28 1924.06 33.64 1917.2 23.93 1905.31 24.08 1912.42 14.55 1908.6 3.29"/>
    <polygon class="cls-1" points="1876.67 271.34 1887.93 275.16 1897.46 268.05 1897.31 279.94 1907.02 286.8 1895.66 290.33 1892.13 301.69 1885.27 291.98 1873.38 292.13 1880.49 282.6 1876.67 271.34"/>
  </g>
</svg>